<svg xmlns="http://www.w3.org/2000/svg" viewBox="0 0 64 64">
  <defs>
    <linearGradient id="bg" x1="10" y1="8" x2="54" y2="56" gradientUnits="userSpaceOnUse">
      <stop offset="0" stop-color="#fffaf1" />
      <stop offset="1" stop-color="#f4efe6" />
    </linearGradient>
    <linearGradient id="ring" x1="12" y1="12" x2="52" y2="52" gradientUnits="userSpaceOnUse">
      <stop offset="0" stop-color="#c46a2d" />
      <stop offset="1" stop-color="#0d7667" />
    </linearGradient>
  </defs>
  <rect x="6" y="6" width="52" height="52" rx="16" fill="url(#bg)" />
  <rect x="6" y="6" width="52" height="52" rx="16" fill="none" stroke="url(#ring)" stroke-width="4" />
  <path d="M27 21c-6.4 0-11 4.7-11 11s4.6 11 11 11c2.7 0 5-.7 6.9-2.1l-2.6-3.6c-1.1.7-2.4 1.1-4 1.1-4 0-6.7-2.8-6.7-6.4s2.7-6.4 6.7-6.4c1.6 0 2.9.4 4 1.1l2.6-3.6c-1.9-1.4-4.2-2.1-6.9-2.1z" fill="#c46a2d" />
  <path d="M37 21v22h7.5c6.1 0 10.5-4.5 10.5-11s-4.4-11-10.5-11zm4.8 4.6h2.2c3.8 0 6.2 2.5 6.2 6.4s-2.4 6.4-6.2 6.4h-2.2z" fill="#0d7667" />
</svg>
